#!OML:ASF I:\Actors\actors\Patient Classification 1\Patient 1\Session 1\Subject1.ASF
:FULLY-SPECIFIED
:DEGREES
3077
root -0.319311 17.4061 6.5128 44.0108 -10.216 -6.46421
lowerback 28.365 2.76291 10.5267
upperback 2.77391 7.10563 3.32592
thorax -11.7217 2.74588 -4.78836
lowerneck -5.1615 -8.26944 -9.05959
upperneck -26.3419 -8.7367 16.3315
head -5.78837 -4.89354 7.12622
rclavicle -3.02153e-014 -6.12257e-014
rhumerus 3.74334 -0.177041 -70.0905
rradius 84.9448
rwrist -10.3082
rhand 1.46898 -62.4365
rfingers 7.12502
rthumb 26.9966 450.527
lclavicle -3.02153e-014 -6.12257e-014
lhumerus -40.4872 -15.2873 102.925
lradius 85.9487
lwrist 59.0785
lhand -47.3969 -33.8311
lfingers 7.12502
lthumb -20.0888 -4.84967
rfemur -56.7747 22.1821 1.30801
rtibia 4.93469
rfoot -2.55346 -29.6741
rtoes 3.64971
lfemur -48.5429 35.6056 -37.3822
ltibia -5.71045
lfoot 12.3381 -17.9374
ltoes 41.0039
3078
root -0.315294 17.4203 6.50502 42.7809 -10.3333 -6.55415
lowerback 27.777 2.80284 10.7011
upperback 2.60856 7.14789 3.23077
thorax -11.5665 2.7689 -4.96703
lowerneck -5.44834 -8.22824 -8.95863
upperneck -26.2912 -8.67068 16.1889
head -5.74948 -4.83991 7.04477
rclavicle -8.42847e-014 -2.22639e-014
rhumerus 2.37047 0.189711 -70.7856
rradius 85.5348
rwrist -9.78537
rhand 1.56187 -62.1823
rfingers 7.12502
rthumb 27.0855 450.259
lclavicle -8.42847e-014 -2.22639e-014
lhumerus -40.5924 -15.4193 102.802
lradius 86.2841
lwrist 59.0458
lhand -47.2135 -33.7634
lfingers 7.12502
lthumb -19.9125 -4.76358
rfemur -55.3467 22.7285 1.78138
rtibia 4.97631
rfoot -3.19882 -29.5895
rtoes 4.89985
lfemur -43.3428 31.8921 -29.9517
ltibia -6.10554
lfoot 9.08687 -11.6596
ltoes 45.2469
3079
root -0.311388 17.4329 6.50176 41.5523 -10.4909 -6.67786
lowerback 27.2323 2.87927 10.7772
upperback 2.4311 7.22445 3.22036
thorax -11.4659 2.8098 -5.00936
lowerneck -5.5014 -8.17676 -8.93137
upperneck -26.3258 -8.61647 15.9821
head -5.7761 -4.78878 6.97259
rclavicle 7.31528e-014 8.42847e-014
rhumerus 1.06278 0.671307 -71.337
rradius 86.1285
rwrist -9.58692
rhand 1.62378 -61.9479
rfingers 7.12502
rthumb 27.1447 450.016
lclavicle 7.31528e-014 8.42847e-014
lhumerus -40.6948 -15.4551 102.821
lradius 86.5323
lwrist 58.8029
lhand -46.9092 -33.8912
lfingers 7.12502
lthumb -19.62 -4.86127
rfemur -53.8667 23.3056 2.25908
rtibia 4.94823
rfoot -3.84884 -29.4938
rtoes 6.17522
lfemur -38.8433 27.6476 -23.3222
ltibia -6.54975
lfoot 5.06243 -5.97823
ltoes 48.6856
3080
root -0.308379 17.4458 6.49961 40.2787 -10.607 -6.74811
lowerback 26.8093 2.94235 10.722
upperback 2.23856 7.27149 3.26961
thorax -11.4758 2.8362 -4.91281
lowerneck -5.49276 -8.05883 -8.95644
upperneck -26.3565 -8.48898 15.6933
head -5.82417 -4.69128 6.88663
rclavicle -6.36111e-015 -4.29375e-014
rhumerus -0.16131 1.2607 -71.8268
rradius 86.6583
rwrist -9.59579
rhand 1.52354 -61.9026
rfingers 7.12502
rthumb 27.0488 630.015
lclavicle -6.36111e-015 -4.29375e-014
lhumerus -40.7553 -15.4004 102.865
lradius 86.7185
lwrist 58.5297
lhand -46.6911 -33.952
lfingers 7.12502
lthumb -19.4102 -4.90081
rfemur -52.2639 23.816 2.76357
rtibia 4.84172
rfoot -4.58903 -29.3904
rtoes 7.93809
lfemur -35.8 22.0295 -18.5829
ltibia -6.57217
lfoot 0.167744 -0.958104
ltoes 46.5229
3081
root -0.306146 17.4575 6.49898 39.0069 -10.7203 -6.82913
lowerback 26.4369 2.99688 10.5983
upperback 2.03118 7.29638 3.31513
thorax -11.54 2.85149 -4.78057
lowerneck -5.63396 -8.03673 -9.37881
upperneck -26.0812 -8.42173 15.8675
head -5.68552 -4.61531 6.98849
rclavicle -1.43125e-014 0
rhumerus -1.30549 1.91907 -72.3956
rradius 87.1013
rwrist -9.44612
rhand 1.32493 -62.1011
rfingers 7.12502
rthumb 26.8588 450.213
lclavicle -1.43125e-014 0
lhumerus -40.8286 -15.2542 102.842
lradius 86.9515
lwrist 58.3952
lhand -46.6396 -34.0304
lfingers 7.12502
lthumb -19.3608 -4.97426
rfemur -50.6671 24.3404 3.30968
rtibia 4.78304
rfoot -5.45964 -29.2869
rtoes 9.78474
lfemur -33.3186 16.1868 -14.3133
ltibia -6.43091
lfoot -4.20524 4.51934
ltoes 44.2956
3082
root -0.303166 17.4678 6.50131 37.7704 -10.7994 -6.89947
lowerback 26.0786 3.01593 10.509
upperback 1.7945 7.28807 3.33308
thorax -11.6414 2.84595 -4.69019
lowerneck -5.78422 -7.83393 -9.08585
upperneck -25.8041 -8.20917 15.4108
head -5.64765 -4.4845 6.76807
rclavicle 3.33958e-014 -2.70347e-014
rhumerus -2.3814 2.66057 -73.0006
rradius 87.4583
rwrist -8.84281
rhand 1.15901 -62.3966
rfingers 7.12502
rthumb 26.7 450.533
lclavicle 3.33958e-014 -2.70347e-014
lhumerus -40.9791 -15.0451 102.768
lradius 87.2625
lwrist 58.3801
lhand -46.7264 -33.7456
lfingers 7.12502
lthumb -19.4442 -4.69778
rfemur -49.6228 24.7712 3.82289
rtibia 5.35877
rfoot -5.48915 -29.2962
rtoes 8.10162
lfemur -31.3414 10.1024 -10.4297
ltibia -6.20189
lfoot -8.18604 10.3208
ltoes 42.0897
3083
root -0.301226 17.4786 6.50593 36.5637 -10.8384 -6.9461
lowerback 25.775 3.02359 10.3928
upperback 1.5146 7.27174 3.36055
thorax -11.8279 2.83132 -4.57829
lowerneck -5.88703 -7.66856 -8.9046
upperneck -25.4239 -8.04896 15.0205
head -5.56593 -4.37552 6.58343
rclavicle -1.27222e-014 -3.65764e-014
rhumerus -3.41491 3.40607 -73.5607
rradius 87.7636
rwrist -7.83271
rhand 1.21126 -62.6269
rfingers 7.12502
rthumb 26.75 450.756
lclavicle -1.27222e-014 -3.65764e-014
lhumerus -41.1503 -14.8237 102.704
lradius 87.5591
lwrist 58.4334
lhand -47.0039 -32.965
lfingers 7.12502
lthumb -19.711 -3.94436
rfemur -48.4848 25.153 4.36138
rtibia 5.78769
rfoot -5.5376 -29.2652
rtoes 6.89299
lfemur -29.8269 3.77558 -6.86907
ltibia -5.88285
lfoot -12.0023 16.3145
ltoes 40.0988
3084
root -0.304558 17.4843 6.51135 35.3967 -10.6706 -7.31658
lowerback 25.4036 3.03241 10.4408
upperback 1.26733 7.31458 3.58126
thorax -11.9393 2.84668 -4.34995
lowerneck -5.68492 -7.53079 -8.89797
upperneck -25.2262 -7.92807 14.7059
head -5.573 -4.288 6.47827
rclavicle -9.54166e-015 4.45278e-014
rhumerus -4.36334 4.15049 -73.9754
rradius 88.0443
rwrist -6.79274
rhand 1.51756 -62.6524
rfingers 7.12502
rthumb 27.0431 450.736
lclavicle -9.54166e-015 4.45278e-014
lhumerus -41.2367 -14.4929 102.707
lradius 87.7257
lwrist 58.4477
lhand -47.2195 -32.4782
lfingers 7.12502
lthumb -19.9183 -3.47893
rfemur -46.7752 24.8416 6.36884
rtibia 6.06597
rfoot -5.51309 -28.0525
rtoes 6.40358
lfemur -28.692 -2.62108 -3.0647
ltibia -5.49351
lfoot -15.7287 22.5267
ltoes 38.0021
3085
root -0.307551 17.4872 6.51949 34.3446 -10.4724 -7.69797
lowerback 24.8893 3.12388 10.729
upperback 0.934462 7.49757 3.61336
thorax -11.9941 2.90928 -4.49949
lowerneck -5.47339 -7.29989 -8.33708
upperneck -24.7373 -7.73745 14.0778
head -5.54311 -4.18618 6.16236
rclavicle -7.95139e-015 -3.81667e-014
rhumerus -5.34532 4.33463 -74.3792
rradius 88.242
rwrist -6.21344
rhand 1.982 -62.6076
rfingers 7.12502
rthumb 27.4874 450.622
lclavicle -7.95139e-015 -3.81667e-014
lhumerus -41.5205 -14.6471 102.632
lradius 87.8278
lwrist 58.4311
lhand -47.1703 -32.3667
lfingers 7.12502
lthumb -19.871 -3.36252
rfemur -45.2516 24.6972 8.02885
rtibia 6.2683
rfoot -5.64509 -27.2457
rtoes 6.37289
lfemur -28.015 -9.17118 0.617194
ltibia -5.11061
lfoot -19.5446 28.897
ltoes 35.9815
3086
root -0.30229 17.4977 6.53202 33.4102 -10.5458 -7.34422
lowerback 24.1712 3.32186 10.4881
upperback 0.538453 7.61099 3.31269
thorax -12.0316 2.96285 -4.6956
lowerneck -5.53095 -7.45869 -7.80831
upperneck -24.0122 -8.03085 13.7849
head -5.31531 -4.33726 5.93118
rclavicle -4.92986e-014 1.59028e-015
rhumerus -5.89817 4.13474 -74.6341
rradius 88.1234
rwrist -6.31839
rhand 2.55954 -62.7428
rfingers 7.12502
rthumb 28.0396 450.668
lclavicle -4.92986e-014 1.59028e-015
lhumerus -41.8383 -15.1326 102.525
lradius 87.9216
lwrist 58.5031
lhand -47.188 -32.0973
lfingers 7.12502
lthumb -19.888 -3.09489
rfemur -43.9775 24.1551 8.63562
rtibia 6.38221
rfoot -5.82014 -26.4775
rtoes 6.39079
lfemur -27.9786 -16.1302 3.31734
ltibia -4.6641
lfoot -23.9411 35.2235
ltoes 34.6497
3087
root -0.297371 17.5094 6.5482 32.4259 -10.5504 -6.96351
lowerback 23.563 3.36979 10.2919
upperback 0.190916 7.55513 3.03915
thorax -12.0919 2.93547 -4.84033
lowerneck -5.41075 -7.38833 -7.25998
upperneck -23.3998 -8.0548 13.2207
head -5.20275 -4.34266 5.63095
rclavicle -7.95139e-016 7.95139e-015
rhumerus -6.84685 4.14207 -75.3619
rradius 88.4711
rwrist -6.44006
rhand 2.95952 -62.9069
rfingers 7.12502
rthumb 28.4219 450.769
lclavicle -7.95139e-016 7.95139e-015
lhumerus -42.004 -15.3089 102.314
lradius 87.9593
lwrist 58.5325
lhand -47.4366 -31.7294
lfingers 7.12502
lthumb -20.127 -2.75195
rfemur -42.6239 23.782 9.05826
rtibia 6.34746
rfoot -6.00899 -26.009
rtoes 6.27432
lfemur -28.3359 -23.2427 6.06966
ltibia -4.14653
lfoot -29.034 41.4075
ltoes 33.7164
3088
root -0.281056 17.5114 6.57871 31.3084 -10.04 -6.75578
lowerback 22.8165 3.01604 10.6778
upperback 0.0272818 7.11565 2.99654
thorax -11.8783 2.72823 -4.912
lowerneck -5.38857 -7.19289 -7.33155
upperneck -22.883 -7.83045 13.0629
head -5.07352 -4.20283 5.56754
rclavicle -2.14687e-014 -5.56597e-014
rhumerus -7.416 4.76231 -75.9959
rradius 88.7722
rwrist -6.90755
rhand 3.11918 -63.2454
rfingers 7.12502
rthumb 28.5744 451.082
lclavicle -2.14687e-014 -5.56597e-014
lhumerus -41.8982 -14.7956 102.048
lradius 87.9611
lwrist 58.483
lhand -47.6406 -31.5103
lfingers 7.12502
lthumb -20.323 -2.55364
rfemur -40.8816 23.5691 9.63047
rtibia 5.9741
rfoot -6.22554 -26.1187
rtoes 6.27695
lfemur -29.3655 -30.719 9.47186
ltibia -3.43412
lfoot -34.7397 47.5937
ltoes 32.4309
3089
root -0.271372 17.5129 6.6146 30.2474 -9.88524 -6.83032
lowerback 21.8834 2.76395 10.5834
upperback 0.152848 6.65673 3.27224
thorax -11.3248 2.58094 -4.34031
lowerneck -6.19633 -6.9258 -8.10222
upperneck -22.0822 -7.42774 13.1969
head -4.69185 -3.9174 5.66848
rclavicle 7.15625e-015 -1.90833e-014
rhumerus -7.31942 5.99376 -76.3171
rradius 88.9694
rwrist -7.36275
rhand 3.32077 -63.9155
rfingers 7.12502
rthumb 28.767 451.719
lclavicle 7.15625e-015 -1.90833e-014
lhumerus -41.316 -13.5671 101.855
lradius 87.9747
lwrist 58.4873
lhand -47.5533 -31.3399
lfingers 7.12502
lthumb -20.2392 -2.37428
rfemur -39.1805 23.3775 10.6378
rtibia 5.72798
rfoot -6.27041 -25.6986
rtoes 5.99327
lfemur -30.5612 -37.7967 13.1315
ltibia -2.89712
lfoot -42.0525 53.3547
ltoes 31.5715
3090
root -0.270945 17.5211 6.63773 29.3179 -9.75057 -6.97263
lowerback 21.293 2.79854 10.5206
upperback -0.0926404 6.64306 3.30066
thorax -11.2902 2.58097 -4.23351
lowerneck -6.42244 -6.81874 -8.10237
upperneck -21.219 -7.34105 12.9518
head -4.41258 -3.83758 5.5413
rclavicle -2.22639e-014 -1.59028e-014
rhumerus -8.02971 6.2519 -76.8531
rradius 89.242
rwrist -7.47582
rhand 3.41428 -64.5602
rfingers 7.12502
rthumb 28.8564 452.349
lclavicle -2.22639e-014 -1.59028e-014
lhumerus -41.5109 -13.3582 101.728
lradius 88.0913
lwrist 58.5863
lhand -47.4905 -31.341
lfingers 7.12502
lthumb -20.1787 -2.36906
rfemur -37.7885 23.2199 11.6216
rtibia 5.69967
rfoot -6.31654 -25.2742
rtoes 5.39958
lfemur -32.8245 -44.6067 17.5747
ltibia -2.20853
lfoot -50.9646 58.7796
ltoes 30.2443
